<mxfile host="app.diagrams.net" agent="Mozilla/5.0 (Windows NT 10.0; Win64; x64) AppleWebKit/537.36 (KHTML, like Gecko) Chrome/136.0.0.0 Safari/537.36" version="27.1.1">
  <diagram name="Página-1" id="-NjWFmwNTDdZop5Tb-pF">
    <mxGraphModel dx="3996" dy="2820" grid="1" gridSize="10" guides="1" tooltips="1" connect="1" arrows="1" fold="1" page="1" pageScale="1" pageWidth="827" pageHeight="1169" math="0" shadow="0">
      <root>
        <mxCell id="0" />
        <mxCell id="1" parent="0" />
        <mxCell id="bF3M0dHNdBB071uP1Fsh-15" style="edgeStyle=orthogonalEdgeStyle;rounded=0;orthogonalLoop=1;jettySize=auto;html=1;entryX=0;entryY=0.5;entryDx=0;entryDy=0;fontSize=16;strokeWidth=13;labelBackgroundColor=none;fontColor=light-dark(#000000,#FFFFFF);" edge="1" parent="1" source="bF3M0dHNdBB071uP1Fsh-2" target="bF3M0dHNdBB071uP1Fsh-8">
          <mxGeometry relative="1" as="geometry" />
        </mxCell>
        <mxCell id="bF3M0dHNdBB071uP1Fsh-2" value="&lt;div style=&quot;font-size: 14px; line-height: 19px; white-space: pre;&quot;&gt;&lt;h3 style=&quot;&quot;&gt;&lt;div style=&quot;font-size: 14px; line-height: 19px;&quot;&gt;&lt;h2 style=&quot;&quot;&gt;&lt;font style=&quot;&quot; face=&quot;Lucida Console&quot;&gt;&lt;font style=&quot;&quot;&gt;2. Upload de Áudio&lt;br&gt;&lt;/font&gt;&lt;font style=&quot;&quot;&gt;• &amp;nbsp; Interface de drag-and-drop para arquivos&lt;br&gt;&lt;/font&gt;&lt;font style=&quot;&quot;&gt;• &amp;nbsp; Botão alternativo para seleção manual de arquivos&lt;br&gt;&lt;/font&gt;&lt;font style=&quot;&quot;&gt;• &amp;nbsp; Validação de formato e tamanho do arquivo&lt;br&gt;&lt;/font&gt;&lt;font style=&quot;&quot;&gt;• &amp;nbsp; Opções de pré-processamento (opcional)&lt;br&gt;&lt;/font&gt;&lt;font style=&quot;&quot;&gt;• &amp;nbsp; Seleção de idioma para transcrição&lt;br&gt;&lt;/font&gt;&lt;font style=&quot;&quot;&gt;• &amp;nbsp; Botão para iniciar processamento&lt;/font&gt;&lt;/font&gt;&lt;/h2&gt;&lt;/div&gt;&lt;/h3&gt;&lt;/div&gt;" style="rounded=1;whiteSpace=wrap;html=1;align=left;dashed=1;strokeWidth=3;glass=1;shadow=1;fillColor=#f5f5f5;strokeColor=#666666;fontColor=light-dark(#000000,#FFFFFF);labelBackgroundColor=none;" vertex="1" parent="1">
          <mxGeometry x="414" y="30" width="700" height="190" as="geometry" />
        </mxCell>
        <mxCell id="bF3M0dHNdBB071uP1Fsh-7" style="edgeStyle=orthogonalEdgeStyle;rounded=0;orthogonalLoop=1;jettySize=auto;html=1;fontSize=16;strokeWidth=13;labelBackgroundColor=none;fontColor=light-dark(#000000,#FFFFFF);" edge="1" parent="1" source="bF3M0dHNdBB071uP1Fsh-4" target="bF3M0dHNdBB071uP1Fsh-2">
          <mxGeometry relative="1" as="geometry" />
        </mxCell>
        <mxCell id="bF3M0dHNdBB071uP1Fsh-4" value="&lt;div style=&quot;line-height: 19px; white-space: pre;&quot;&gt;&lt;h3 style=&quot;&quot;&gt;&lt;div style=&quot;line-height: 19px;&quot;&gt;&lt;h2 style=&quot;&quot;&gt;&lt;div style=&quot;font-family: Consolas, &amp;quot;Courier New&amp;quot;, monospace; line-height: 19px;&quot;&gt;&lt;h2 style=&quot;&quot;&gt;&lt;font style=&quot;font-size: 22px;&quot;&gt;1. Página Inicial&lt;/font&gt;&lt;/h2&gt;&lt;div style=&quot;&quot;&gt;&lt;span&gt;&lt;font style=&quot;font-size: 22px;&quot;&gt;• &amp;nbsp; Apresentação do sistema e suas funcionalidades&lt;/font&gt;&lt;/span&gt;&lt;/div&gt;&lt;div style=&quot;&quot;&gt;&lt;span&gt;&lt;font style=&quot;font-size: 22px;&quot;&gt;• &amp;nbsp; Instruções de uso&lt;/font&gt;&lt;/span&gt;&lt;/div&gt;&lt;div style=&quot;&quot;&gt;&lt;span&gt;&lt;font style=&quot;font-size: 22px;&quot;&gt;• &amp;nbsp; Opções de configuração inicial (idioma, etc.)&lt;/font&gt;&lt;/span&gt;&lt;/div&gt;&lt;div style=&quot;&quot;&gt;&lt;font style=&quot;font-size: 22px;&quot;&gt;• &amp;nbsp; Botão para iniciar o processo de upload&lt;/font&gt;&lt;/div&gt;&lt;/div&gt;&lt;/h2&gt;&lt;/div&gt;&lt;/h3&gt;&lt;/div&gt;" style="rounded=1;whiteSpace=wrap;html=1;align=left;dashed=1;strokeWidth=3;glass=1;shadow=1;fillColor=#f5f5f5;strokeColor=#666666;fontColor=light-dark(#000000,#FFFFFF);labelBackgroundColor=none;" vertex="1" parent="1">
          <mxGeometry x="-550" y="30" width="700" height="190" as="geometry" />
        </mxCell>
        <mxCell id="bF3M0dHNdBB071uP1Fsh-16" style="edgeStyle=orthogonalEdgeStyle;rounded=0;orthogonalLoop=1;jettySize=auto;html=1;entryX=0.5;entryY=0;entryDx=0;entryDy=0;fontSize=16;strokeWidth=13;labelBackgroundColor=none;fontColor=light-dark(#000000,#FFFFFF);" edge="1" parent="1" source="bF3M0dHNdBB071uP1Fsh-8" target="bF3M0dHNdBB071uP1Fsh-10">
          <mxGeometry relative="1" as="geometry">
            <mxPoint x="-140" y="340" as="targetPoint" />
            <Array as="points">
              <mxPoint x="1660" y="290" />
              <mxPoint x="-70" y="290" />
            </Array>
          </mxGeometry>
        </mxCell>
        <mxCell id="bF3M0dHNdBB071uP1Fsh-8" value="&lt;div style=&quot;line-height: 19px; white-space: pre;&quot;&gt;&lt;h3 style=&quot;&quot;&gt;&lt;div style=&quot;line-height: 19px;&quot;&gt;&lt;h2 style=&quot;&quot;&gt;&lt;div style=&quot;font-family: Consolas, &amp;quot;Courier New&amp;quot;, monospace; line-height: 19px;&quot;&gt;&lt;div style=&quot;&quot;&gt;&lt;font style=&quot;font-size: 22px;&quot;&gt;&lt;span&gt;3.&lt;/span&gt; Processamento&lt;/font&gt;&lt;/div&gt;&lt;div style=&quot;&quot;&gt;&lt;font style=&quot;font-size: 22px;&quot;&gt;• &amp;nbsp; Exibição de barra de progresso&lt;/font&gt;&lt;/div&gt;&lt;div style=&quot;&quot;&gt;&lt;font style=&quot;font-size: 22px;&quot;&gt;• &amp;nbsp; Indicação das etapas em andamento:&lt;/font&gt;&lt;/div&gt;&lt;div style=&quot;&quot;&gt;&lt;font style=&quot;font-size: 22px;&quot;&gt;– &amp;nbsp; Upload do arquivo&lt;/font&gt;&lt;/div&gt;&lt;div style=&quot;&quot;&gt;&lt;font style=&quot;font-size: 22px;&quot;&gt;– &amp;nbsp; Pré-processamento do áudio (se aplicável)&lt;/font&gt;&lt;/div&gt;&lt;div style=&quot;&quot;&gt;&lt;font style=&quot;font-size: 22px;&quot;&gt;– &amp;nbsp; Transcrição em andamento&lt;/font&gt;&lt;/div&gt;&lt;div style=&quot;&quot;&gt;&lt;font style=&quot;font-size: 22px;&quot;&gt;– &amp;nbsp; Pós-processamento do texto&lt;/font&gt;&lt;/div&gt;&lt;div style=&quot;&quot;&gt;&lt;font style=&quot;font-size: 22px;&quot;&gt;• &amp;nbsp; Opção para cancelar o processo&lt;/font&gt;&lt;/div&gt;&lt;/div&gt;&lt;/h2&gt;&lt;/div&gt;&lt;/h3&gt;&lt;/div&gt;" style="rounded=1;whiteSpace=wrap;html=1;align=left;dashed=1;strokeWidth=3;glass=1;shadow=1;fillColor=#f5f5f5;strokeColor=#666666;fontColor=light-dark(#000000,#FFFFFF);labelBackgroundColor=none;" vertex="1" parent="1">
          <mxGeometry x="1310" y="30" width="700" height="190" as="geometry" />
        </mxCell>
        <mxCell id="bF3M0dHNdBB071uP1Fsh-17" style="edgeStyle=orthogonalEdgeStyle;rounded=0;orthogonalLoop=1;jettySize=auto;html=1;entryX=0;entryY=0.5;entryDx=0;entryDy=0;strokeWidth=13;labelBackgroundColor=none;fontColor=light-dark(#000000,#FFFFFF);" edge="1" parent="1" source="bF3M0dHNdBB071uP1Fsh-10" target="bF3M0dHNdBB071uP1Fsh-11">
          <mxGeometry relative="1" as="geometry" />
        </mxCell>
        <mxCell id="bF3M0dHNdBB071uP1Fsh-10" value="&lt;div style=&quot;line-height: 19px; white-space: pre;&quot;&gt;&lt;h3 style=&quot;&quot;&gt;&lt;div style=&quot;line-height: 19px;&quot;&gt;&lt;h2 style=&quot;&quot;&gt;&lt;div style=&quot;font-family: Consolas, &amp;quot;Courier New&amp;quot;, monospace; line-height: 19px;&quot;&gt;&lt;div style=&quot;line-height: 19px;&quot;&gt;&lt;div style=&quot;&quot;&gt;&lt;span&gt;&lt;font style=&quot;font-size: 22px;&quot;&gt;&lt;span style=&quot;&quot;&gt;4.&lt;/span&gt; Transcrição&lt;/font&gt;&lt;/span&gt;&lt;/div&gt;&lt;div style=&quot;&quot;&gt;&lt;span&gt;&lt;font style=&quot;font-size: 22px;&quot;&gt;• &amp;nbsp; Processamento do áudio utilizando a biblioteca SpeechRecognition&lt;/font&gt;&lt;/span&gt;&lt;/div&gt;&lt;div style=&quot;&quot;&gt;&lt;span&gt;&lt;font style=&quot;font-size: 22px;&quot;&gt;• &amp;nbsp; Aplicação de algoritmos de melhoria de texto (pontuação, etc.)&lt;/font&gt;&lt;/span&gt;&lt;/div&gt;&lt;div style=&quot;&quot;&gt;&lt;span&gt;&lt;font style=&quot;font-size: 22px;&quot;&gt;• &amp;nbsp; Preparação do resultado para exibição&lt;/font&gt;&lt;/span&gt;&lt;/div&gt;&lt;/div&gt;&lt;/div&gt;&lt;/h2&gt;&lt;/div&gt;&lt;/h3&gt;&lt;/div&gt;" style="rounded=1;whiteSpace=wrap;html=1;align=left;dashed=1;strokeWidth=3;glass=1;shadow=1;fillColor=#f5f5f5;strokeColor=#666666;fontColor=light-dark(#000000,#FFFFFF);labelBackgroundColor=none;" vertex="1" parent="1">
          <mxGeometry x="-490" y="390" width="840" height="170" as="geometry" />
        </mxCell>
        <mxCell id="bF3M0dHNdBB071uP1Fsh-18" style="edgeStyle=orthogonalEdgeStyle;rounded=0;orthogonalLoop=1;jettySize=auto;html=1;entryX=0;entryY=0.5;entryDx=0;entryDy=0;strokeWidth=13;labelBackgroundColor=none;fontColor=light-dark(#000000,#FFFFFF);" edge="1" parent="1" source="bF3M0dHNdBB071uP1Fsh-11" target="bF3M0dHNdBB071uP1Fsh-12">
          <mxGeometry relative="1" as="geometry" />
        </mxCell>
        <mxCell id="bF3M0dHNdBB071uP1Fsh-11" value="&lt;div style=&quot;line-height: 19px; white-space: pre;&quot;&gt;&lt;h3 style=&quot;&quot;&gt;&lt;div style=&quot;line-height: 19px;&quot;&gt;&lt;h2 style=&quot;&quot;&gt;&lt;div style=&quot;font-family: Consolas, &amp;quot;Courier New&amp;quot;, monospace; line-height: 19px;&quot;&gt;&lt;div style=&quot;line-height: 19px;&quot;&gt;&lt;div style=&quot;line-height: 19px;&quot;&gt;&lt;div style=&quot;&quot;&gt;&lt;font style=&quot;font-size: 22px;&quot;&gt;&lt;span&gt;5.&lt;/span&gt; Exibição do Texto Transcrito&lt;/font&gt;&lt;/div&gt;&lt;div style=&quot;&quot;&gt;&lt;span&gt;&lt;font style=&quot;font-size: 22px;&quot;&gt;• &amp;nbsp; Apresentação do texto completo transcrito&lt;/font&gt;&lt;/span&gt;&lt;/div&gt;&lt;div style=&quot;&quot;&gt;&lt;span&gt;&lt;font style=&quot;font-size: 22px;&quot;&gt;• &amp;nbsp; Opções de formatação visual&lt;/font&gt;&lt;/span&gt;&lt;/div&gt;&lt;div style=&quot;&quot;&gt;&lt;span&gt;&lt;font style=&quot;font-size: 22px;&quot;&gt;• &amp;nbsp; Reprodutor de áudio sincronizado (opcional)&lt;/font&gt;&lt;/span&gt;&lt;/div&gt;&lt;div style=&quot;&quot;&gt;&lt;span&gt;&lt;font style=&quot;font-size: 22px;&quot;&gt;• &amp;nbsp; Marcação de timestamps (se ativado)&lt;/font&gt;&lt;/span&gt;&lt;/div&gt;&lt;div style=&quot;&quot;&gt;&lt;font style=&quot;font-size: 22px;&quot;&gt;• &amp;nbsp; Interface para edição manual do texto&lt;/font&gt;&lt;/div&gt;&lt;/div&gt;&lt;/div&gt;&lt;/div&gt;&lt;/h2&gt;&lt;/div&gt;&lt;/h3&gt;&lt;/div&gt;" style="rounded=1;whiteSpace=wrap;html=1;align=left;dashed=1;strokeWidth=3;glass=1;shadow=1;fillColor=#f5f5f5;strokeColor=#666666;fontColor=light-dark(#000000,#FFFFFF);labelBackgroundColor=none;" vertex="1" parent="1">
          <mxGeometry x="530" y="380" width="700" height="190" as="geometry" />
        </mxCell>
        <mxCell id="bF3M0dHNdBB071uP1Fsh-12" value="&lt;div style=&quot;line-height: 19px; white-space: pre;&quot;&gt;&lt;h3 style=&quot;&quot;&gt;&lt;div style=&quot;line-height: 19px;&quot;&gt;&lt;h2 style=&quot;&quot;&gt;&lt;div style=&quot;font-family: Consolas, &amp;quot;Courier New&amp;quot;, monospace; line-height: 19px;&quot;&gt;&lt;div style=&quot;line-height: 19px;&quot;&gt;&lt;div style=&quot;line-height: 19px;&quot;&gt;&lt;div style=&quot;line-height: 19px;&quot;&gt;&lt;div style=&quot;&quot;&gt;&lt;span&gt;&lt;font style=&quot;font-size: 22px;&quot;&gt;&lt;span style=&quot;&quot;&gt;6.&lt;/span&gt; Ações Pós-Transcrição&lt;/font&gt;&lt;/span&gt;&lt;/div&gt;&lt;div style=&quot;&quot;&gt;&lt;span&gt;&lt;font style=&quot;font-size: 22px;&quot;&gt;• &amp;nbsp; Copiar texto para área de transferência&lt;/font&gt;&lt;/span&gt;&lt;/div&gt;&lt;div style=&quot;&quot;&gt;&lt;span&gt;&lt;font style=&quot;font-size: 22px;&quot;&gt;• &amp;nbsp; Baixar texto em diferentes formatos (TXT, PDF, DOCX)&lt;/font&gt;&lt;/span&gt;&lt;/div&gt;&lt;div style=&quot;&quot;&gt;&lt;span&gt;&lt;font style=&quot;font-size: 22px;&quot;&gt;• &amp;nbsp; Salvar no histórico de transcrições&lt;/font&gt;&lt;/span&gt;&lt;/div&gt;&lt;div style=&quot;&quot;&gt;&lt;span&gt;&lt;font style=&quot;font-size: 22px;&quot;&gt;• &amp;nbsp; Compartilhar (se implementado)&lt;/font&gt;&lt;/span&gt;&lt;/div&gt;&lt;div style=&quot;&quot;&gt;&lt;span&gt;&lt;font style=&quot;font-size: 22px;&quot;&gt;• &amp;nbsp; Iniciar nova transcrição&lt;/font&gt;&lt;/span&gt;&lt;/div&gt;&lt;/div&gt;&lt;/div&gt;&lt;/div&gt;&lt;/div&gt;&lt;/h2&gt;&lt;/div&gt;&lt;/h3&gt;&lt;/div&gt;" style="rounded=1;whiteSpace=wrap;html=1;align=left;dashed=1;strokeWidth=3;glass=1;shadow=1;fillColor=#f5f5f5;strokeColor=#666666;fontColor=light-dark(#000000,#FFFFFF);labelBackgroundColor=none;" vertex="1" parent="1">
          <mxGeometry x="1410" y="380" width="700" height="190" as="geometry" />
        </mxCell>
        <mxCell id="bF3M0dHNdBB071uP1Fsh-21" value="&lt;h1 style=&quot;margin-top: 0px;&quot;&gt;&lt;div style=&quot;line-height: 19px; white-space: pre;&quot;&gt;&lt;div style=&quot;&quot;&gt;&lt;span style=&quot;font-size: 40px;&quot;&gt;Fluxograma do Sistema de Transcrição de Áudio Web&lt;/span&gt;&lt;/div&gt;&lt;div style=&quot;&quot;&gt;&lt;span&gt;&lt;font style=&quot;&quot;&gt;&lt;br&gt;&lt;/font&gt;&lt;/span&gt;&lt;/div&gt;&lt;div style=&quot;&quot;&gt;&lt;span&gt;&lt;font style=&quot;&quot;&gt;&lt;br&gt;&lt;/font&gt;&lt;/span&gt;&lt;/div&gt;&lt;div style=&quot;&quot;&gt;&lt;span&gt;&lt;font style=&quot;&quot;&gt;&lt;br&gt;&lt;/font&gt;&lt;/span&gt;&lt;/div&gt;&lt;div style=&quot;&quot;&gt;&lt;span&gt;&lt;font style=&quot;&quot;&gt;&lt;br&gt;&lt;/font&gt;&lt;/span&gt;&lt;/div&gt;&lt;div style=&quot;&quot;&gt;&lt;span&gt;&lt;font style=&quot;&quot;&gt;&lt;br&gt;&lt;/font&gt;&lt;/span&gt;&lt;/div&gt;&lt;div style=&quot;&quot;&gt;&lt;span&gt;&lt;font style=&quot;&quot;&gt;Fluxo Principal do Sistema&lt;/font&gt;&lt;/span&gt;&lt;/div&gt;&lt;/div&gt;&lt;/h1&gt;" style="text;html=1;whiteSpace=wrap;overflow=hidden;rounded=0;fontFamily=Verdana;fontStyle=1;fontSize=40;align=center;labelBackgroundColor=none;fontColor=light-dark(#000000,#FFFFFF);" vertex="1" parent="1">
          <mxGeometry x="170" y="-240" width="1280" height="210" as="geometry" />
        </mxCell>
        <mxCell id="bF3M0dHNdBB071uP1Fsh-22" value="&lt;h1 style=&quot;margin-top: 0px;&quot;&gt;&lt;div style=&quot;line-height: 19px; white-space: pre;&quot;&gt;&lt;div style=&quot;&quot;&gt;&lt;br&gt;&lt;/div&gt;&lt;div style=&quot;&quot;&gt;&lt;span&gt;&lt;font style=&quot;&quot;&gt;&lt;br&gt;&lt;/font&gt;&lt;/span&gt;&lt;/div&gt;&lt;div style=&quot;&quot;&gt;&lt;span&gt;&lt;font style=&quot;&quot;&gt;&lt;br&gt;&lt;/font&gt;&lt;/span&gt;&lt;/div&gt;&lt;div style=&quot;&quot;&gt;&lt;span&gt;&lt;font style=&quot;&quot;&gt;Fluxo do Utilizador&lt;/font&gt;&lt;/span&gt;&lt;/div&gt;&lt;/div&gt;&lt;/h1&gt;" style="text;html=1;whiteSpace=wrap;overflow=hidden;rounded=0;fontFamily=Verdana;fontStyle=1;fontSize=40;align=center;labelBackgroundColor=none;fontColor=light-dark(#000000,#FFFFFF);" vertex="1" parent="1">
          <mxGeometry x="150" y="720" width="1280" height="210" as="geometry" />
        </mxCell>
        <mxCell id="bF3M0dHNdBB071uP1Fsh-23" value="&lt;div style=&quot;line-height: 19px; white-space: pre;&quot;&gt;&lt;h3 style=&quot;&quot;&gt;&lt;div style=&quot;line-height: 19px;&quot;&gt;&lt;h2 style=&quot;&quot;&gt;&lt;div style=&quot;font-family: Consolas, &amp;quot;Courier New&amp;quot;, monospace; line-height: 19px;&quot;&gt;&lt;h2 style=&quot;&quot;&gt;&lt;div style=&quot;font-weight: normal; line-height: 19px;&quot;&gt;&lt;font style=&quot;font-size: 26px;&quot;&gt;Acesso ao Site&lt;/font&gt;&lt;/div&gt;&lt;/h2&gt;&lt;/div&gt;&lt;/h2&gt;&lt;/div&gt;&lt;/h3&gt;&lt;/div&gt;" style="rounded=1;whiteSpace=wrap;html=1;align=center;dashed=1;strokeWidth=3;glass=1;shadow=1;fillColor=#f5f5f5;strokeColor=#666666;fontColor=light-dark(#000000,#FFFFFF);labelBackgroundColor=none;" vertex="1" parent="1">
          <mxGeometry x="-180" y="900" width="400" height="120" as="geometry" />
        </mxCell>
        <mxCell id="bF3M0dHNdBB071uP1Fsh-24" value="&lt;div style=&quot;line-height: 19px; white-space: pre;&quot;&gt;&lt;h3 style=&quot;&quot;&gt;&lt;div style=&quot;line-height: 19px;&quot;&gt;&lt;h2 style=&quot;&quot;&gt;&lt;div style=&quot;font-family: Consolas, &amp;quot;Courier New&amp;quot;, monospace; line-height: 19px;&quot;&gt;&lt;h2 style=&quot;&quot;&gt;&lt;div style=&quot;font-weight: normal; line-height: 19px;&quot;&gt;&lt;font style=&quot;font-size: 26px;&quot;&gt;Pagina Inicial &lt;/font&gt;&lt;/div&gt;&lt;/h2&gt;&lt;/div&gt;&lt;/h2&gt;&lt;/div&gt;&lt;/h3&gt;&lt;/div&gt;" style="rounded=1;whiteSpace=wrap;html=1;align=center;dashed=1;strokeWidth=3;glass=1;shadow=1;fillColor=#f5f5f5;strokeColor=#666666;fontColor=light-dark(#000000,#FFFFFF);labelBackgroundColor=none;" vertex="1" parent="1">
          <mxGeometry x="250" y="1130" width="400" height="120" as="geometry" />
        </mxCell>
        <mxCell id="bF3M0dHNdBB071uP1Fsh-25" value="&lt;div style=&quot;line-height: 19px; white-space: pre;&quot;&gt;&lt;h3 style=&quot;&quot;&gt;&lt;div style=&quot;line-height: 19px;&quot;&gt;&lt;h2 style=&quot;&quot;&gt;&lt;div style=&quot;font-family: Consolas, &amp;quot;Courier New&amp;quot;, monospace; line-height: 19px;&quot;&gt;&lt;h2 style=&quot;&quot;&gt;&lt;div style=&quot;font-weight: normal; line-height: 19px;&quot;&gt;&lt;font style=&quot;font-size: 26px;&quot;&gt;Pagina de Upload&lt;/font&gt;&lt;/div&gt;&lt;/h2&gt;&lt;/div&gt;&lt;/h2&gt;&lt;/div&gt;&lt;/h3&gt;&lt;/div&gt;" style="rounded=1;whiteSpace=wrap;html=1;align=center;dashed=1;strokeWidth=3;glass=1;shadow=1;fillColor=#f5f5f5;strokeColor=#666666;fontColor=light-dark(#000000,#FFFFFF);labelBackgroundColor=none;" vertex="1" parent="1">
          <mxGeometry x="-413" y="1290" width="400" height="120" as="geometry" />
        </mxCell>
        <mxCell id="bF3M0dHNdBB071uP1Fsh-26" value="&lt;div style=&quot;line-height: 19px; white-space: pre;&quot;&gt;&lt;h3 style=&quot;&quot;&gt;&lt;div style=&quot;line-height: 19px;&quot;&gt;&lt;h2 style=&quot;&quot;&gt;&lt;div style=&quot;font-family: Consolas, &amp;quot;Courier New&amp;quot;, monospace; line-height: 19px;&quot;&gt;&lt;h2 style=&quot;&quot;&gt;&lt;div style=&quot;font-weight: normal; line-height: 19px;&quot;&gt;&lt;font style=&quot;font-size: 26px;&quot;&gt;Tela de Carregamento&lt;/font&gt;&lt;/div&gt;&lt;/h2&gt;&lt;/div&gt;&lt;/h2&gt;&lt;/div&gt;&lt;/h3&gt;&lt;/div&gt;" style="rounded=1;whiteSpace=wrap;html=1;align=center;dashed=1;strokeWidth=3;glass=1;shadow=1;fillColor=#f5f5f5;strokeColor=#666666;fontColor=light-dark(#000000,#FFFFFF);labelBackgroundColor=none;" vertex="1" parent="1">
          <mxGeometry x="10" y="1510" width="400" height="120" as="geometry" />
        </mxCell>
      </root>
    </mxGraphModel>
  </diagram>
</mxfile>
